<svg width="30" height="31" viewBox="0 0 30 31" fill="none" xmlns="http://www.w3.org/2000/svg">
<path d="M27.6667 30.2164L17.1667 19.7164C16.3333 20.3831 15.375 20.9109 14.2917 21.2998C13.2083 21.6887 12.0556 21.8831 10.8333 21.8831C7.80556 21.8831 5.24333 20.8342 3.14667 18.7364C1.05 16.6387 0.00111111 14.0764 0 11.0498C0 8.02199 1.04889 5.45976 3.14667 3.3631C5.24444 1.26643 7.80667 0.217542 10.8333 0.216431C13.8611 0.216431 16.4233 1.26532 18.52 3.3631C20.6167 5.46087 21.6656 8.0231 21.6667 11.0498C21.6667 12.272 21.4722 13.4248 21.0833 14.5081C20.6944 15.5914 20.1667 16.5498 19.5 17.3831L30 27.8831L27.6667 30.2164ZM10.8333 18.5498C12.9167 18.5498 14.6878 17.8203 16.1467 16.3614C17.6056 14.9025 18.3344 13.132 18.3333 11.0498C18.3333 8.96643 17.6039 7.19532 16.145 5.73643C14.6861 4.27754 12.9156 3.54865 10.8333 3.54976C8.75 3.54976 6.97889 4.27921 5.52 5.7381C4.06111 7.19699 3.33222 8.96754 3.33333 11.0498C3.33333 13.1331 4.06278 14.9042 5.52167 16.3631C6.98056 17.822 8.75111 18.5509 10.8333 18.5498Z" fill="#424242"/>
</svg>
