<svg width="26" height="26" viewBox="0 0 26 26" fill="none" xmlns="http://www.w3.org/2000/svg">
<path d="M3.25 6.91813C3.25 6.39379 3.62375 5.96804 4.08525 5.96804H6.97233C7.54542 5.95071 8.05133 5.53579 8.24633 4.92263L8.27883 4.81429L8.40342 4.39071C8.47925 4.13071 8.54533 3.90321 8.6385 3.70063C9.00467 2.90004 9.68283 2.34429 10.4661 2.20238C10.6654 2.16663 10.8756 2.16663 11.1161 2.16663H14.8839C15.1255 2.16663 15.3357 2.16663 15.5339 2.20238C16.3172 2.34429 16.9964 2.90004 17.3615 3.70063C17.4547 3.90321 17.5208 4.12963 17.5977 4.39071L17.7212 4.81429L17.7537 4.92263C17.9487 5.53579 18.5553 5.95179 19.1295 5.96804H21.9137C22.3763 5.96804 22.75 6.39379 22.75 6.91813C22.75 7.44246 22.3763 7.86821 21.9148 7.86821H4.08417C3.62375 7.86821 3.25 7.44246 3.25 6.91813Z" fill="black"/>
<path fill-rule="evenodd" clip-rule="evenodd" d="M12.5624 23.8332H13.4377C16.4526 23.8332 17.9595 23.8332 18.941 22.8734C19.9204 21.9136 20.02 20.3395 20.2204 17.1913L20.5097 12.6543C20.618 10.9459 20.6722 10.0912 20.1814 9.55058C19.6896 9.00891 18.8598 9.00891 17.199 9.00891H8.80102C7.14027 9.00891 6.30935 9.00891 5.8186 9.55058C5.32677 10.0922 5.38094 10.9459 5.49035 12.6543L5.7796 17.1913C5.98002 20.3395 6.07969 21.9147 7.0601 22.8734C8.04052 23.8332 9.54744 23.8332 12.5624 23.8332ZM11.0999 13.2047C11.0565 12.7345 10.6579 12.3922 10.2115 12.4387C9.7641 12.4853 9.4391 12.9046 9.48352 13.3747L10.0252 19.0763C10.0685 19.5465 10.4672 19.8888 10.9135 19.8422C11.3609 19.7957 11.6859 19.3764 11.6415 18.9062L11.0999 13.2047ZM15.7896 12.4387C16.2359 12.4853 16.562 12.9046 16.5165 13.3747L15.9749 19.0763C15.9315 19.5465 15.5318 19.8888 15.0865 19.8422C14.6391 19.7957 14.3141 19.3764 14.3585 18.9062L14.9002 13.2047C14.9435 12.7345 15.3444 12.3922 15.7896 12.4387Z" fill="black"/>
</svg>
